#tb 0: 1/24
#media_type 0: video
#codec_id 0: jpeg2000
#dimensions 0: 640x360
#sar 0: 0/1
0,          0,          0,        1,     1698, 0xd8730ea4
0,          1,          1,        1,     1966, 0x6562867e
0,          2,          2,        1,     2063, 0x18f4bb7d
0,          3,          3,        1,     1618, 0x0770dca6
0,          4,          4,        1,     2100, 0xd0a1c42b
0,          5,          5,        1,     2068, 0xd411c582
0,          6,          6,        1,     2520, 0x7b539dfc
0,          7,          7,        1,     1964, 0x106d867a
0,          8,          8,        1,     1964, 0x106d867a
0,          9,          9,        1,     1964, 0x106d867a
0,         10,         10,        1,     1964, 0x106d867a
0,         11,         11,        1,     1964, 0x106d867a
0,         12,         12,        1,     1964, 0x106d867a
0,         13,         13,        1,     1964, 0x106d867a
0,         14,         14,        1,     1964, 0x106d867a
0,         15,         15,        1,     1964, 0x106d867a
0,         16,         16,        1,     1964, 0x106d867a
0,         17,         17,        1,     1964, 0x106d867a
0,         18,         18,        1,     1964, 0x106d867a
0,         19,         19,        1,     1964, 0x106d867a
0,         20,         20,        1,     1964, 0x106d867a
0,         21,         21,        1,     1964, 0x106d867a
0,         22,         22,        1,     1964, 0x106d867a
0,         23,         23,        1,     1964, 0x106d867a
0,         24,         24,        1,     1964, 0x106d867a
0,         25,         25,        1,     1964, 0x106d867a
0,         26,         26,        1,     1964, 0x106d867a
0,         27,         27,        1,     1964, 0x106d867a
0,         28,         28,        1,     1964, 0x106d867a
0,         29,         29,        1,     1964, 0x106d867a
0,         30,         30,        1,     1964, 0x106d867a
0,         31,         31,        1,     2068, 0xd411c582
0,         32,         32,        1,     2520, 0x7b539dfc
0,         33,         33,        1,     1846, 0x9d184658
0,         34,         34,        1,     2475, 0x2967a123
0,         35,         35,        1,     2540, 0xdc61ad87
0,         36,         36,        1,     2214, 0xa7da105f
0,         37,         37,        1,     2486, 0xa68d89b4
0,         38,         38,        1,     2615, 0xbc35d5ad
0,         39,         39,        1,     2150, 0x643aea98
0,         40,         40,        1,     2628, 0x2880c4ad
